<svg width="27" height="33" viewBox="0 0 27 33" fill="none" xmlns="http://www.w3.org/2000/svg">
<path fill-rule="evenodd" clip-rule="evenodd" d="M0.5 0.5H24.5V24.8432L0.5 24.375V0.5ZM1.5 1.5V23.3943L23.5 23.8235V1.5H1.5Z" fill="#777777"/>
<path d="M21.125 6.94311L1 1V23.8534L21.125 29V6.94311Z" fill="white"/>
<path fill-rule="evenodd" clip-rule="evenodd" d="M0.5 0.999999L1.14161 0.520472L21.2666 6.46358L21.625 6.94311V29L21.0011 29.4844L0.876121 24.3378L0.5 23.8534V0.999999ZM1.5 1.669V23.4652L20.625 28.356V7.3168L1.5 1.669Z" fill="#777777"/>
<path fill-rule="evenodd" clip-rule="evenodd" d="M14.7556 12.2133L5.17227 9.41328L5.45272 8.45341L15.0361 11.2534L14.7556 12.2133ZM14.7556 15.48L5.17227 12.68L5.45272 11.7201L15.0361 14.5201L14.7556 15.48Z" fill="#777777"/>
<path d="M27 25C27 29.4183 23.4183 33 19 33C14.5817 33 11 29.4183 11 25C11 20.5817 14.5817 17 19 17C23.4183 17 27 20.5817 27 25Z" fill="white"/>
<path fill-rule="evenodd" clip-rule="evenodd" d="M19 32C22.866 32 26 28.866 26 25C26 21.134 22.866 18 19 18C15.134 18 12 21.134 12 25C12 28.866 15.134 32 19 32ZM19 33C23.4183 33 27 29.4183 27 25C27 20.5817 23.4183 17 19 17C14.5817 17 11 20.5817 11 25C11 29.4183 14.5817 33 19 33Z" fill="#777777"/>
<path fill-rule="evenodd" clip-rule="evenodd" d="M22.8717 22.8345L18.0191 28.2262L14.6465 24.8536L15.3536 24.1464L17.9809 26.7738L22.1284 22.1655L22.8717 22.8345Z" fill="#777777"/>
</svg>
