<svg width="42" height="46" viewBox="0 0 42 46" fill="none" xmlns="http://www.w3.org/2000/svg">
<path fill-rule="evenodd" clip-rule="evenodd" d="M1 8.07483V44.9286H15.2177C22.1394 44.9286 33.9251 42.1224 33.9251 26.4082C33.9251 10.6939 22.1394 8.07483 15.2177 8.07483H1ZM12.0374 20.2347V32.5816H16.7228C19.0038 32.5816 22.8878 31.6415 22.8878 26.3768C22.8878 21.1121 19.0038 20.2347 16.7228 20.2347H12.0374Z" fill="white"/>
<path d="M1 44.9286H0.5V45.4286H1V44.9286ZM1 8.07483V7.57483H0.5V8.07483H1ZM12.0374 32.5816H11.5374V33.0816H12.0374V32.5816ZM12.0374 20.2347V19.7347H11.5374V20.2347H12.0374ZM1.5 44.9286V8.07483H0.5V44.9286H1.5ZM15.2177 44.4286H1V45.4286H15.2177V44.4286ZM33.4251 26.4082C33.4251 34.1207 30.5438 38.5894 26.8805 41.1515C23.1863 43.7351 18.6263 44.4286 15.2177 44.4286V45.4286C18.7309 45.4286 23.5245 44.7189 27.4536 41.9709C31.4136 39.2014 34.4251 34.4099 34.4251 26.4082H33.4251ZM15.2177 8.57483C18.6309 8.57483 23.1908 9.22316 26.8839 11.7607C30.5444 14.2759 33.4251 18.696 33.4251 26.4082H34.4251C34.4251 18.406 31.4131 13.6595 27.4502 10.9365C23.52 8.23602 18.7262 7.57483 15.2177 7.57483V8.57483ZM1 8.57483H15.2177V7.57483H1V8.57483ZM12.5374 32.5816V20.2347H11.5374V32.5816H12.5374ZM16.7228 32.0816H12.0374V33.0816H16.7228V32.0816ZM22.3878 26.3768C22.3878 28.8679 21.4792 30.258 20.3709 31.046C19.2328 31.8552 17.8097 32.0816 16.7228 32.0816V33.0816C17.9169 33.0816 19.5763 32.838 20.9504 31.861C22.3544 30.8627 23.3878 29.1504 23.3878 26.3768H22.3878ZM16.7228 20.7347C17.8145 20.7347 19.2374 20.9472 20.3743 21.7414C21.4797 22.5135 22.3878 23.8861 22.3878 26.3768H23.3878C23.3878 23.6029 22.3539 21.9044 20.947 20.9216C19.5717 19.9609 17.9122 19.7347 16.7228 19.7347V20.7347ZM12.0374 20.7347H16.7228V19.7347H12.0374V20.7347Z" fill="black"/>
<path fill-rule="evenodd" clip-rule="evenodd" d="M4.53741 4.53738V41.3911H18.7551C25.6769 41.3911 37.4626 38.585 37.4626 22.8707C37.4626 7.15643 25.6769 4.53738 18.7551 4.53738H4.53741ZM15.5748 16.6973V29.0442H20.2602C22.5413 29.0442 26.4252 28.1041 26.4252 22.8394C26.4252 17.5747 22.5413 16.6973 20.2602 16.6973H15.5748Z" fill="white"/>
<path d="M4.53741 41.3911H4.03741V41.8911H4.53741V41.3911ZM4.53741 4.53738V4.03738H4.03741V4.53738H4.53741ZM15.5748 29.0442H15.0748V29.5442H15.5748V29.0442ZM15.5748 16.6973V16.1973H15.0748V16.6973H15.5748ZM5.03741 41.3911V4.53738H4.03741V41.3911H5.03741ZM18.7551 40.8911H4.53741V41.8911H18.7551V40.8911ZM36.9626 22.8707C36.9626 30.5832 34.0813 35.0519 30.4179 37.614C26.7237 40.1977 22.1637 40.8911 18.7551 40.8911V41.8911C22.2683 41.8911 27.062 41.1814 30.9911 38.4335C34.951 35.664 37.9626 30.8725 37.9626 22.8707H36.9626ZM18.7551 5.03738C22.1683 5.03738 26.7283 5.68572 30.4213 8.22329C34.0818 10.7384 36.9626 15.1586 36.9626 22.8707H37.9626C37.9626 14.8686 34.9505 10.122 30.9876 7.3991C27.0574 4.69858 22.2636 4.03738 18.7551 4.03738V5.03738ZM4.53741 5.03738H18.7551V4.03738H4.53741V5.03738ZM16.0748 29.0442V16.6973H15.0748V29.0442H16.0748ZM20.2602 28.5442H15.5748V29.5442H20.2602V28.5442ZM25.9252 22.8394C25.9252 25.3305 25.0166 26.7206 23.9083 27.5086C22.7702 28.3178 21.3471 28.5442 20.2602 28.5442V29.5442C21.4543 29.5442 23.1137 29.3006 24.4878 28.3235C25.8918 27.3253 26.9252 25.613 26.9252 22.8394H25.9252ZM20.2602 17.1973C21.3519 17.1973 22.7748 17.4098 23.9118 18.204C25.0171 18.9761 25.9252 20.3486 25.9252 22.8394H26.9252C26.9252 20.0655 25.8913 18.367 24.4844 17.3842C23.1091 16.4235 21.4496 16.1973 20.2602 16.1973V17.1973ZM15.5748 17.1973H20.2602V16.1973H15.5748V17.1973Z" fill="black"/>
<path fill-rule="evenodd" clip-rule="evenodd" d="M8.07486 1V37.8537H22.2925C29.2143 37.8537 41 35.0476 41 19.3333C41 3.61905 29.2143 1 22.2925 1H8.07486ZM19.1123 13.1599V25.5068H23.7976C26.0787 25.5068 29.9626 24.5667 29.9626 19.302C29.9626 14.0373 26.0787 13.1599 23.7976 13.1599H19.1123Z" fill="white"/>
<path d="M8.07486 37.8537H7.57486V38.3537H8.07486V37.8537ZM8.07486 1V0.5H7.57486V1H8.07486ZM19.1123 25.5068H18.6123V26.0068H19.1123V25.5068ZM19.1123 13.1599V12.6599H18.6123V13.1599H19.1123ZM8.57486 37.8537V1H7.57486V37.8537H8.57486ZM22.2925 37.3537H8.07486V38.3537H22.2925V37.3537ZM40.5 19.3333C40.5 27.0458 37.6187 31.5146 33.9554 34.0766C30.2612 36.6603 25.7011 37.3537 22.2925 37.3537V38.3537C25.8057 38.3537 30.5994 37.6441 34.5285 34.8961C38.4885 32.1266 41.5 27.3351 41.5 19.3333H40.5ZM22.2925 1.5C25.7058 1.5 30.2657 2.14833 33.9588 4.6859C37.6192 7.20106 40.5 11.6212 40.5 19.3333H41.5C41.5 11.3312 38.4879 6.58465 34.5251 3.86171C30.5949 1.16119 25.8011 0.5 22.2925 0.5V1.5ZM8.07486 1.5H22.2925V0.5H8.07486V1.5ZM19.6123 25.5068V13.1599H18.6123V25.5068H19.6123ZM23.7976 25.0068H19.1123V26.0068H23.7976V25.0068ZM29.4626 19.302C29.4626 21.7931 28.554 23.1832 27.4458 23.9712C26.3077 24.7804 24.8846 25.0068 23.7976 25.0068V26.0068C24.9918 26.0068 26.6511 25.7632 28.0252 24.7862C29.4292 23.7879 30.4626 22.0756 30.4626 19.302H29.4626ZM23.7976 13.6599C24.8893 13.6599 26.3123 13.8724 27.4492 14.6666C28.5545 15.4387 29.4626 16.8112 29.4626 19.302H30.4626C30.4626 16.5281 29.4287 14.8296 28.0218 13.8468C26.6465 12.8861 24.987 12.6599 23.7976 12.6599V13.6599ZM19.1123 13.6599H23.7976V12.6599H19.1123V13.6599Z" fill="black"/>
</svg>
