<svg width="27" height="26" viewBox="0 0 27 26" fill="none" xmlns="http://www.w3.org/2000/svg">
<path fill-rule="evenodd" clip-rule="evenodd" d="M13.4414 12.4464L26.5 18.6228V25.5H0.5V18.624L13.4414 12.4464ZM13.4434 13.5536L1.5 19.2548V24.5H25.5V19.256L13.4434 13.5536Z" fill="#777777"/>
<path fill-rule="evenodd" clip-rule="evenodd" d="M13.5 12C16.5376 12 19 9.53757 19 6.5C19 3.46243 16.5376 1 13.5 1C10.4624 1 8 3.46243 8 6.5C8 9.53757 10.4624 12 13.5 12ZM13.5 13C17.0899 13 20 10.0899 20 6.5C20 2.91015 17.0899 0 13.5 0C9.91015 0 7 2.91015 7 6.5C7 10.0899 9.91015 13 13.5 13Z" fill="#777777"/>
</svg>
